<?xml version="1.0" encoding="UTF-8"?>
<!DOCTYPE svg PUBLIC "-//W3C//DTD SVG 1.1//EN" "http://www.w3.org/Graphics/SVG/1.1/DTD/svg11.dtd">
<svg xmlns="http://www.w3.org/2000/svg" version="1.1" width="373px" height="373px" style="shape-rendering:geometricPrecision; text-rendering:geometricPrecision; image-rendering:optimizeQuality; fill-rule:evenodd; clip-rule:evenodd" xmlns:xlink="http://www.w3.org/1999/xlink">
<g><path style="opacity:0.316" fill="#fdfdfd" d="M 100.5,24.5 C 99.6364,23.3117 98.6364,22.1451 97.5,21C 69.1667,20.3333 40.8333,20.3333 12.5,21C 11.7476,21.6708 11.4142,22.5041 11.5,23.5C 10.2089,22.4583 10.2089,21.2917 11.5,20C 40.5,19.3333 69.5,19.3333 98.5,20C 100.107,21.049 100.773,22.549 100.5,24.5 Z"/></g>
<g><path style="opacity:1" fill="#cbd5df" d="M 100.5,24.5 C 101.404,25.209 101.737,26.209 101.5,27.5C 101.402,29.5529 102.069,31.2196 103.5,32.5C 104.404,33.209 104.737,34.209 104.5,35.5C 116.4,68.8767 129.066,101.877 142.5,134.5C 142.402,136.553 143.069,138.22 144.5,139.5C 157.303,174.577 170.303,209.577 183.5,244.5C 185.124,244.64 186.29,243.973 187,242.5C 195.131,221.912 202.964,201.245 210.5,180.5C 213.601,174.057 216.434,167.39 219,160.5C 219.977,158.26 220.477,155.927 220.5,153.5C 222.834,151.824 223.834,149.491 223.5,146.5C 223.733,143.458 224.733,140.792 226.5,138.5C 236.734,113.811 246.401,88.8111 255.5,63.5C 259.273,55.8562 262.273,47.8562 264.5,39.5C 265.441,35.6754 266.774,32.0087 268.5,28.5C 269.709,25.7307 271.376,23.2307 273.5,21C 301.979,20.0097 330.313,20.343 358.5,22C 310.614,134.987 263.114,248.154 216,361.5C 195.573,362.659 175.073,362.826 154.5,362C 151.203,353.911 147.536,346.077 143.5,338.5C 141.836,334.504 140.169,330.504 138.5,326.5C 138.88,324.302 138.213,322.635 136.5,321.5C 136.88,319.302 136.213,317.635 134.5,316.5C 124.797,290.713 114.13,265.379 102.5,240.5C 99.5973,235.14 97.264,229.473 95.5,223.5C 95.1277,219.703 93.7943,216.37 91.5,213.5C 85.6293,198.086 79.4627,182.752 73,167.5C 68.7681,157.603 64.2681,147.937 59.5,138.5C 57.9723,135.251 56.6389,131.918 55.5,128.5C 55.821,125.423 54.821,123.09 52.5,121.5C 52.8799,119.302 52.2132,117.635 50.5,116.5C 40.6023,90.4627 29.9356,64.796 18.5,39.5C 15.6554,34.4693 13.3221,29.1359 11.5,23.5C 11.4142,22.5041 11.7476,21.6708 12.5,21C 40.8333,20.3333 69.1667,20.3333 97.5,21C 98.6364,22.1451 99.6364,23.3117 100.5,24.5 Z"/></g>
<g><path style="opacity:0.176" fill="#fbfcfc" d="M 101.5,27.5 C 102.931,28.7804 103.598,30.4471 103.5,32.5C 102.069,31.2196 101.402,29.5529 101.5,27.5 Z"/></g>
<g><path style="opacity:0.173" fill="#fafbfc" d="M 18.5,39.5 C 29.9356,64.796 40.6023,90.4627 50.5,116.5C 38.674,91.366 28.0073,65.6993 18.5,39.5 Z"/></g>
<g><path style="opacity:0.831" fill="#eaeef2" d="M 264.5,39.5 C 262.273,47.8562 259.273,55.8562 255.5,63.5C 255.5,62.8333 255.5,62.1667 255.5,61.5C 257.738,53.7685 260.738,46.4352 264.5,39.5 Z"/></g>
<g><path style="opacity:0.233" fill="#fbfcfc" d="M 104.5,35.5 C 113.89,57.9646 123.056,80.6313 132,103.5C 136.09,113.67 139.59,124.003 142.5,134.5C 129.066,101.877 116.4,68.8767 104.5,35.5 Z"/></g>
<g><path style="opacity:0.184" fill="#fafbfc" d="M 255.5,61.5 C 255.5,62.1667 255.5,62.8333 255.5,63.5C 246.401,88.8111 236.734,113.811 226.5,138.5C 235.198,112.399 244.864,86.7324 255.5,61.5 Z"/></g>
<g><path style="opacity:0.784" fill="#f1f3f5" d="M 50.5,116.5 C 52.2132,117.635 52.8799,119.302 52.5,121.5C 51.0687,120.22 50.4021,118.553 50.5,116.5 Z"/></g>
<g><path style="opacity:0.867" fill="#ebeff3" d="M 52.5,121.5 C 54.821,123.09 55.821,125.423 55.5,128.5C 54.2638,126.351 53.2638,124.018 52.5,121.5 Z"/></g>
<g><path style="opacity:0.151" fill="#fbfcfc" d="M 142.5,134.5 C 143.931,135.78 144.598,137.447 144.5,139.5C 143.069,138.22 142.402,136.553 142.5,134.5 Z"/></g>
<g><path style="opacity:0.957" fill="#e6ebef" d="M 223.5,146.5 C 223.834,149.491 222.834,151.824 220.5,153.5C 220.935,150.843 221.935,148.509 223.5,146.5 Z"/></g>
<g><path style="opacity:0.753" fill="#eff2f5" d="M 220.5,153.5 C 220.477,155.927 219.977,158.26 219,160.5C 216.434,167.39 213.601,174.057 210.5,180.5C 210.5,179.833 210.5,179.167 210.5,178.5C 213.462,169.931 216.796,161.598 220.5,153.5 Z"/></g>
<g><path style="opacity:0.247" fill="#f8fafb" d="M 59.5,138.5 C 64.2681,147.937 68.7681,157.603 73,167.5C 79.4627,182.752 85.6293,198.086 91.5,213.5C 89.4409,210.389 87.6076,207.056 86,203.5C 77.1476,181.801 68.3142,160.135 59.5,138.5 Z"/></g>
<g><path style="opacity:0.213" fill="#fbfcfc" d="M 144.5,139.5 C 158.462,173.536 171.962,207.869 185,242.5C 193.812,221.22 202.312,199.887 210.5,178.5C 210.5,179.167 210.5,179.833 210.5,180.5C 202.964,201.245 195.131,221.912 187,242.5C 186.29,243.973 185.124,244.64 183.5,244.5C 170.303,209.577 157.303,174.577 144.5,139.5 Z"/></g>
<g><path style="opacity:0.631" fill="#f2f4f6" d="M 91.5,213.5 C 93.7943,216.37 95.1277,219.703 95.5,223.5C 93.5968,220.47 92.2635,217.137 91.5,213.5 Z"/></g>
<g><path style="opacity:0.419" fill="#fafbfb" d="M 143.5,338.5 C 147.536,346.077 151.203,353.911 154.5,362C 175.073,362.826 195.573,362.659 216,361.5C 263.114,248.154 310.614,134.987 358.5,22C 330.313,20.343 301.979,20.0097 273.5,21C 271.376,23.2307 269.709,25.7307 268.5,28.5C 268.415,25.2528 269.415,22.4194 271.5,20C 300.5,19.3333 329.5,19.3333 358.5,20C 359.576,21.7261 359.743,23.5594 359,25.5C 311.686,138.45 264.186,251.283 216.5,364C 195.5,364.667 174.5,364.667 153.5,364C 149.475,355.758 146.142,347.258 143.5,338.5 Z"/></g>
<g><path style="opacity:0.206" fill="#fafafb" d="M 102.5,240.5 C 114.13,265.379 124.797,290.713 134.5,316.5C 122.764,291.685 112.097,266.351 102.5,240.5 Z"/></g>
<g><path style="opacity:0.792" fill="#f0f2f5" d="M 134.5,316.5 C 136.213,317.635 136.88,319.302 136.5,321.5C 135.069,320.22 134.402,318.553 134.5,316.5 Z"/></g>
<g><path style="opacity:0.878" fill="#ebeef2" d="M 136.5,321.5 C 138.213,322.635 138.88,324.302 138.5,326.5C 137.069,325.22 136.402,323.553 136.5,321.5 Z"/></g>
</svg>
